# xmcd
#
# Track frame offsets:
#	150
#	16069
#	30892
#	44620
#	60269
#	73824
#	90981
#	104903
#	123405
#	138365
#	155610
#	171728
#	187729
#	201513
#	215063
#	228812
#	243536
#	257974
#	276263
#	291476
#	307462
#	325753
#	332655
#	333650
#	334360
#	335050
#	335790
#	336625
#	337415
#	338165
#	338865
#	339720
#	340712
#	341407
#	342082
#	342752
#	343545
#	344275
#	345025
#	345775
#	346644
#	347688
#	348507
#	349215
#	349923
#	350743
#	351563
#	352271
#
# Disc length: 4703 seconds
#
# Revision: 1
# Processed by: cddbd v1.5.2PL0 Copyright (c) Steve Scherf et al.
# Submitted via: audiograbber 1.83.01
#
DISCID=3f125d30
DTITLE=Various Artist - CDX Volume 632 (April 18, 2016)
DYEAR=2016
DGENRE=Country
TTITLE0=Easton Corbin - Are You With Me [Radio Mix]
TTITLE1=Carrie Underwood - Church Bells
TTITLE2=Charles Kelley - Lonely Girl
TTITLE3=Kenny Chesney - Noise 
TTITLE4=Michael Ray - Think a Little Less 
TTITLE5=Keith Urban - Wasted Time
TTITLE6=Love And Theft - Whiskey On My Breath 
TTITLE7=Ray Scott - High Road
TTITLE8=Jeff Bates - That Thing We Do 
TTITLE9=Restless Heart - Wichita Lineman
TTITLE10=Rachael Turner - Aftershock
TTITLE11=Parker Willingham - All Over You 
TTITLE12=Benjy Gaither - Get Enuff
TTITLE13=Jon and Angela - Livin on the Lake
TTITLE14=Anthony K - Marry Me 
TTITLE15=Ward Davis - No Goin' Home
TTITLE16=Southern Halo - Rewind
TTITLE17=Donovan Lee - She Stays 
TTITLE18=Homegrown Band - Summer Song
TTITLE19=Maiden Dixie - The Whiskey'll Miss Me 
TTITLE20=Reagan Johnson - There's Only One 
TTITLE21=Cyndi Lauper - Mini Interview
TTITLE22=Keith Walker - Radio Liner - My New Single
TTITLE23=Keith Walker - Radio Liner - Today's Best Country 
TTITLE24=Keith Walker - Radio Liner - Kickin' Country
TTITLE25=Keith Walker - Radio Liner - Hometown Country
TTITLE26=Keith Walker - Radio Liner - Super Country
TTITLE27=Keith Walker - Radio Liner - Today's Hot Country
TTITLE28=Keith Walker - Radio Liner - Best In Today's Country
TTITLE29=Keith Walker - Radio Liner - More of the Country You Love
TTITLE30=Keith Walker - Radio Liner - Howlin' Countrty
TTITLE31=Kylie Morgan - Radio Liner - My New Single
TTITLE32=Kylie Morgan - Radio Liner - Today's Best Country
TTITLE33=Kylie Morgan - Radio Liner - Kickin' Country
TTITLE34=Kylie Morgan - Radio Liner - Hometown Country
TTITLE35=Kylie Morgan - Radio Liner - Super Country
TTITLE36=Kylie Morgan - Radio Liner - Today's Hot Country
TTITLE37=Kylie Morgan - Radio Liner - Best In Today's Country
TTITLE38=Kylie Morgan - Radio Liner - More of the Country You Love
TTITLE39=Kylie Morgan - Radio Liner - Howlin' Country
TTITLE40=Reagan Johnson - Radio Liner - My New Single
TTITLE41=Reagan Johnson - Radio Liner - Today's Best Country
TTITLE42=Reagan Johnson - Radio Liner - Kickin' Country
TTITLE43=Reagan Johnson - Radio Liner - Hometown Country
TTITLE44=Reagan Johnson - Radio Liner - Super Country
TTITLE45=Reagan Johnson - Radio Liner - Today's Hot Country Music
TTITLE46=Reagan Johnson - Radio Liner - Best In Country
TTITLE47=Reagan Johnson - Radio Liner - More of the Country You Love
EXTD=
EXTT0=
EXTT1=
EXTT2=
EXTT3=
EXTT4=
EXTT5=
EXTT6=
EXTT7=
EXTT8=
EXTT9=
EXTT10=
EXTT11=
EXTT12=
EXTT13=
EXTT14=
EXTT15=
EXTT16=
EXTT17=
EXTT18=
EXTT19=
EXTT20=
EXTT21=
EXTT22=
EXTT23=
EXTT24=
EXTT25=
EXTT26=
EXTT27=
EXTT28=
EXTT29=
EXTT30=
EXTT31=
EXTT32=
EXTT33=
EXTT34=
EXTT35=
EXTT36=
EXTT37=
EXTT38=
EXTT39=
EXTT40=
EXTT41=
EXTT42=
EXTT43=
EXTT44=
EXTT45=
EXTT46=
EXTT47=
PLAYORDER=
